<svg data-v-d3f97b9e="" xmlns="http://www.w3.org/2000/svg" viewBox="0 0 534 90"><!----><!----><!----><g data-v-d3f97b9e="" id="8044a6fb-c4e7-430a-8263-88f164d45405" fill="#2e3034" transform="matrix(4.4768290519714355,0,0,4.4768290519714355,146.0301055908203,-0.2142246663570404)"><path d="M5.51 4.16C2.75 4.16 0.68 6.32 0.68 8.94C0.68 11.57 2.75 13.73 5.51 13.73C8.27 13.73 10.34 11.57 10.34 8.94C10.34 6.32 8.27 4.16 5.51 4.16ZM5.51 5.36C7.56 5.36 9.08 6.89 9.08 8.94C9.08 10.99 7.56 12.52 5.51 12.52C3.46 12.52 1.94 10.99 1.94 8.94C1.94 6.89 3.46 5.36 5.51 5.36ZM15.65 6.55C14.62 6.55 13.78 7.12 13.30 7.85L13.30 6.69L12.18 6.69L12.18 16.80L13.30 16.80L13.30 12.61C13.89 13.26 14.77 13.73 15.54 13.73C17.42 13.73 18.84 12.25 18.84 9.99C18.84 7.92 17.42 6.55 15.65 6.55ZM15.48 7.64C16.80 7.64 17.68 8.67 17.68 9.99C17.68 11.32 16.80 12.63 15.34 12.63C14.51 12.63 13.89 12.14 13.32 11.43L13.30 10.12C13.29 8.65 14.23 7.64 15.48 7.64ZM22.30 6.69L22.30 4.72L21.78 4.72C21.33 6.07 20.75 7.01 19.87 7.41L19.87 7.74L21.18 7.74L21.18 11.80C21.18 12.96 21.78 13.73 22.94 13.73C23.63 13.73 23.98 13.54 24.35 13.25L24.35 12.33C24.08 12.50 23.73 12.66 23.19 12.66C22.59 12.66 22.30 12.32 22.30 11.74L22.30 7.74L24.29 7.74L24.29 6.69ZM27.43 5.26C27.95 5.26 28.36 4.81 28.36 4.33C28.36 3.84 27.95 3.40 27.43 3.40C26.89 3.40 26.50 3.84 26.50 4.33C26.50 4.81 26.89 5.26 27.43 5.26ZM28.12 6.69L25.92 6.69L25.92 7.74L27.00 7.74L27.00 13.52L28.12 13.52ZM38.43 6.55C37.42 6.55 36.72 7.19 36.08 7.94C35.62 7.01 34.70 6.55 33.71 6.55C32.79 6.55 32.10 7.07 31.66 7.56L31.66 6.69L30.54 6.69L30.54 13.52L31.66 13.52L31.66 8.76C32.17 8.15 32.77 7.64 33.52 7.64C34.60 7.64 35.25 8.29 35.25 9.46L35.26 13.52L36.38 13.52L36.38 8.87C36.90 8.22 37.45 7.64 38.24 7.64C39.32 7.64 39.96 8.29 39.96 9.46L39.98 13.52L41.10 13.52L41.10 9.35C41.10 7.46 39.83 6.55 38.43 6.55ZM44.31 5.26C44.83 5.26 45.24 4.81 45.24 4.33C45.24 3.84 44.83 3.40 44.31 3.40C43.78 3.40 43.38 3.84 43.38 4.33C43.38 4.81 43.78 5.26 44.31 5.26ZM45.01 6.69L42.81 6.69L42.81 7.74L43.89 7.74L43.89 13.52L45.01 13.52ZM52.88 7.05L52.88 6.69L47.29 6.69L47.29 7.74L51.00 7.74L47.02 13.15L47.02 13.52L53.02 13.52L53.02 12.47L48.77 12.47ZM60.89 9.87C60.89 8.00 59.86 6.55 57.75 6.55C55.82 6.55 54.46 8.20 54.46 10.14C54.46 12.09 55.95 13.73 58.02 13.73C59.09 13.73 59.80 13.26 60.07 12.99L60.07 11.85C59.62 12.18 59.01 12.63 58.02 12.63C56.71 12.63 55.81 11.69 55.64 10.54L60.89 10.54ZM55.67 9.58C55.86 8.50 56.63 7.64 57.75 7.64C58.71 7.64 59.65 8.26 59.79 9.58ZM68.92 13.52L68.92 3.68L67.80 3.68L67.80 7.60C67.21 6.95 66.34 6.55 65.56 6.55C63.68 6.55 62.26 7.96 62.26 10.21C62.26 12.29 63.68 13.73 65.45 13.73C66.49 13.73 67.32 13.08 67.80 12.36L67.80 13.52ZM65.76 7.67C66.60 7.67 67.21 8.07 67.79 8.78L67.80 10.09C67.81 11.55 66.87 12.63 65.63 12.63C64.30 12.63 63.42 11.54 63.42 10.21C63.42 8.89 64.30 7.67 65.76 7.67ZM75.87 10.46L75.87 4.36L75.41 4.36C73.99 7.12 72.01 9.38 70.45 11.05L70.45 11.50L74.63 11.50L74.63 13.52L75.87 13.52L75.87 11.50L77.30 11.50L77.30 10.46ZM74.63 10.46L72.37 10.46C73.16 9.57 73.91 8.50 74.63 7.37ZM86.52 4.33L85.29 4.33L85.29 9.86C85.29 11.72 84.11 12.43 82.74 12.44C81.38 12.46 80.20 11.72 80.20 9.86L80.20 4.33L78.97 4.33L78.97 9.90C78.97 12.29 80.60 13.70 82.74 13.70C84.89 13.70 86.52 12.29 86.52 9.90Z"></path></g><!----><g data-v-d3f97b9e="" id="9ec686d2-6942-4f71-84b5-7303e8bb3340" transform="matrix(1.3374353647232056,0,0,1.3374353647232056,-1.0149534940719604,-20.26978874206543)" stroke="none" fill="#488eff"><path d="M63.777 81.298a5.639 5.639 0 0 1-4.029 1.614l-11.372-.135a5.632 5.632 0 0 1-3.99-1.707 5.624 5.624 0 0 1-1.612-4.028l.299-25.591a5.635 5.635 0 0 1 1.708-3.989 5.632 5.632 0 0 1 4.029-1.614l11.372.133a5.631 5.631 0 0 1 3.989 1.708 5.622 5.622 0 0 1 1.613 4.029l-.301 25.589a5.633 5.633 0 0 1-1.706 3.991zM46.926 49.656a2.592 2.592 0 0 0-.784 1.83l-.301 25.591a2.584 2.584 0 0 0 .74 1.849 2.578 2.578 0 0 0 1.832.783l11.37.134a2.59 2.59 0 0 0 1.851-.739 2.588 2.588 0 0 0 .782-1.831l.302-25.591a2.602 2.602 0 0 0-2.571-2.632l-11.372-.134a2.595 2.595 0 0 0-1.849.74z"></path><path d="M65.013 73.495l-22.023-.26.253-21.589 22.025.259-.255 21.59zm-18.919-3.292l15.887.188.183-15.452-15.888-.188-.182 15.452z"></path><path d="M90.08 76.663h-.084l-20.376-.07.021-6.463 20.399.07c.292-.005.62-.11.844-.327.223-.218.342-.499.347-.812l.231-29.307a1.106 1.106 0 0 0-.325-.826 1.12 1.12 0 0 0-.815-.35l-34.22-.102a1.12 1.12 0 0 0-.843.326c-.226.22-.345.499-.349.809l-.041 3.112-6.463-.087.042-3.106a7.554 7.554 0 0 1 2.294-5.351 7.502 7.502 0 0 1 5.409-2.166l34.223.102a7.59 7.59 0 0 1 5.385 2.293 7.55 7.55 0 0 1 2.167 5.411l-.231 29.307a7.577 7.577 0 0 1-2.293 5.368 7.56 7.56 0 0 1-5.322 2.169z"></path><path d="M39.472 64.378h-9.606l1.922-3.011h7.684V48.895H13.499c-1.056 0-1.949-.892-1.949-1.949V24.005c0-1.057.893-1.95 1.949-1.95h44.255c1.057 0 1.947.893 1.947 1.95v3.154h6.438v-3.154c0-4.625-3.761-8.386-8.385-8.386H13.499c-4.623 0-8.385 3.762-8.385 8.386v22.941c0 3.564 2.237 6.606 5.378 7.818L2.69 63.389c-.656.724-1.02 1.406-1.117 2.002h-.155v3.722h.146c.113 1.016 1.145 1.678 2.98 1.678h34.928v-6.413z"></path></g><!----></svg>