<svg data-v-d3f97b9e="" xmlns="http://www.w3.org/2000/svg" viewBox="0 0 86.04864456957101 60"><!----><!----><!----><!----><g data-v-d3f97b9e="" id="860ad6f6-72bc-40c7-907c-509933ee7f30" transform="matrix(0.8916236162185669,0,0,0.8916236162185669,-1.2642942667007446,-13.924653053283691)" stroke="none" fill="white"><path d="M63.777 81.298a5.639 5.639 0 0 1-4.029 1.614l-11.372-.135a5.632 5.632 0 0 1-3.99-1.707 5.624 5.624 0 0 1-1.612-4.028l.299-25.591a5.635 5.635 0 0 1 1.708-3.989 5.632 5.632 0 0 1 4.029-1.614l11.372.133a5.631 5.631 0 0 1 3.989 1.708 5.622 5.622 0 0 1 1.613 4.029l-.301 25.589a5.633 5.633 0 0 1-1.706 3.991zM46.926 49.656a2.592 2.592 0 0 0-.784 1.83l-.301 25.591a2.584 2.584 0 0 0 .74 1.849 2.578 2.578 0 0 0 1.832.783l11.37.134a2.59 2.59 0 0 0 1.851-.739 2.588 2.588 0 0 0 .782-1.831l.302-25.591a2.602 2.602 0 0 0-2.571-2.632l-11.372-.134a2.595 2.595 0 0 0-1.849.74z"></path><path d="M65.013 73.495l-22.023-.26.253-21.589 22.025.259-.255 21.59zm-18.919-3.292l15.887.188.183-15.452-15.888-.188-.182 15.452z"></path><path d="M90.08 76.663h-.084l-20.376-.07.021-6.463 20.399.07c.292-.005.62-.11.844-.327.223-.218.342-.499.347-.812l.231-29.307a1.106 1.106 0 0 0-.325-.826 1.12 1.12 0 0 0-.815-.35l-34.22-.102a1.12 1.12 0 0 0-.843.326c-.226.22-.345.499-.349.809l-.041 3.112-6.463-.087.042-3.106a7.554 7.554 0 0 1 2.294-5.351 7.502 7.502 0 0 1 5.409-2.166l34.223.102a7.59 7.59 0 0 1 5.385 2.293 7.55 7.55 0 0 1 2.167 5.411l-.231 29.307a7.577 7.577 0 0 1-2.293 5.368 7.56 7.56 0 0 1-5.322 2.169z"></path><path d="M39.472 64.378h-9.606l1.922-3.011h7.684V48.895H13.499c-1.056 0-1.949-.892-1.949-1.949V24.005c0-1.057.893-1.95 1.949-1.95h44.255c1.057 0 1.947.893 1.947 1.95v3.154h6.438v-3.154c0-4.625-3.761-8.386-8.385-8.386H13.499c-4.623 0-8.385 3.762-8.385 8.386v22.941c0 3.564 2.237 6.606 5.378 7.818L2.69 63.389c-.656.724-1.02 1.406-1.117 2.002h-.155v3.722h.146c.113 1.016 1.145 1.678 2.98 1.678h34.928v-6.413z"></path></g><!----></svg>